<svg width="60" height="60" viewBox="0 0 60 60" fill="none" xmlns="http://www.w3.org/2000/svg">
<path d="M42.6455 55.9199L39.0156 58.5596L36.0947 54.541H5.47363V50.8594L20.375 32.915L4.16016 10.6074L7.79004 7.96875L42.6455 55.9199ZM54.5293 50.8594V54.541H47.8506L31.9639 32.6855H39.4336L54.5293 50.8594ZM30 5.45898C32.9837 5.45898 35.8443 6.6451 37.9541 8.75488C40.0639 10.8647 41.25 13.7253 41.25 16.709C41.25 19.6927 40.0639 22.5533 37.9541 24.6631C35.8443 26.7729 32.9837 27.959 30 27.959C29.4777 27.959 28.9596 27.9199 28.4482 27.8486L18.9248 14.749C19.3242 12.4937 20.4041 10.3967 22.0459 8.75488C24.1557 6.6451 27.0163 5.45898 30 5.45898Z" fill="#606673"/>
</svg>
