<svg width="24" height="24" viewBox="0 0 24 24" fill="none" xmlns="http://www.w3.org/2000/svg">
<path d="M19.6221 20.3438V21.8164H0V20.3438L6.03711 13.0742H13.584L19.6221 20.3438Z" fill="white"/>
<path d="M9.81055 2.18359C11.004 2.18359 12.1483 2.65804 12.9922 3.50195C13.8361 4.34587 14.3105 5.49012 14.3105 6.68359C14.3105 7.87707 13.8361 9.02132 12.9922 9.86523C12.1483 10.7091 11.004 11.1836 9.81055 11.1836C8.61707 11.1836 7.47282 10.7091 6.62891 9.86523C5.78499 9.02132 5.31055 7.87707 5.31055 6.68359C5.31055 5.49012 5.78499 4.34587 6.62891 3.50195C7.47282 2.65804 8.61707 2.18359 9.81055 2.18359Z" fill="white"/>
<path d="M20.0928 7.38672V9.26953H21.9766V11.2695H20.0928V13.1631L18.0928 13.1621V11.2695H16.2002V9.26953H18.0928V7.38574L20.0928 7.38672Z" fill="white"/>
</svg>
